<mxfile host="Electron" agent="Mozilla/5.0 (Macintosh; Intel Mac OS X 10_15_7) AppleWebKit/537.36 (KHTML, like Gecko) draw.io/27.0.9 Chrome/134.0.6998.205 Electron/35.4.0 Safari/537.36" version="27.0.9">
  <diagram name="Page-1" id="itbt64L2awqTi8Suhe_X">
    <mxGraphModel dx="970" dy="819" grid="1" gridSize="10" guides="1" tooltips="1" connect="1" arrows="1" fold="1" page="1" pageScale="1" pageWidth="827" pageHeight="1169" math="0" shadow="0">
      <root>
        <mxCell id="0" />
        <mxCell id="1" parent="0" />
        <mxCell id="5NR6WptyOh8fAquEwYTR-1" value="public func request() {&lt;div&gt;state.request()&lt;/div&gt;&lt;div&gt;}&lt;/div&gt;" style="shape=note2;boundedLbl=1;whiteSpace=wrap;html=1;size=25;verticalAlign=top;align=center;fontSize=16;strokeWidth=2;" vertex="1" parent="1">
          <mxGeometry x="80" y="595" width="240" height="110" as="geometry" />
        </mxCell>
        <mxCell id="5NR6WptyOh8fAquEwYTR-6" value="&lt;font&gt;&amp;lt;&amp;lt;interface&amp;gt;&amp;gt;&lt;br&gt;&lt;/font&gt;&lt;b&gt;State&lt;/b&gt;&lt;div&gt;&lt;b&gt;&lt;br&gt;&lt;/b&gt;&lt;/div&gt;" style="swimlane;fontStyle=0;align=center;verticalAlign=top;childLayout=stackLayout;horizontal=1;startSize=40;horizontalStack=0;resizeParent=1;resizeParentMax=0;resizeLast=0;collapsible=0;marginBottom=0;html=1;whiteSpace=wrap;fontSize=16;strokeWidth=2;swimlaneLine=0;" vertex="1" parent="1">
          <mxGeometry x="522" y="410" width="240" height="120" as="geometry" />
        </mxCell>
        <mxCell id="5NR6WptyOh8fAquEwYTR-8" value="&lt;b&gt;ConcreteState&lt;/b&gt;" style="swimlane;fontStyle=0;align=center;verticalAlign=top;childLayout=stackLayout;horizontal=1;startSize=40;horizontalStack=0;resizeParent=1;resizeParentMax=0;resizeLast=0;collapsible=0;marginBottom=0;html=1;whiteSpace=wrap;fontSize=16;strokeWidth=2;" vertex="1" parent="1">
          <mxGeometry x="520" y="635" width="240" height="70" as="geometry" />
        </mxCell>
        <mxCell id="5NR6WptyOh8fAquEwYTR-9" value="+handle()" style="text;html=1;strokeColor=none;fillColor=none;align=left;verticalAlign=middle;spacingLeft=4;spacingRight=4;overflow=hidden;rotatable=0;points=[[0,0.5],[1,0.5]];portConstraint=eastwest;whiteSpace=wrap;fontSize=16;strokeWidth=2;" vertex="1" parent="5NR6WptyOh8fAquEwYTR-8">
          <mxGeometry y="40" width="240" height="30" as="geometry" />
        </mxCell>
        <mxCell id="5NR6WptyOh8fAquEwYTR-12" style="edgeStyle=orthogonalEdgeStyle;rounded=0;orthogonalLoop=1;jettySize=auto;html=1;fontSize=16;strokeWidth=2;curved=1;dashed=1;endArrow=none;startFill=0;" edge="1" parent="1" source="5NR6WptyOh8fAquEwYTR-10" target="5NR6WptyOh8fAquEwYTR-1">
          <mxGeometry relative="1" as="geometry" />
        </mxCell>
        <mxCell id="5NR6WptyOh8fAquEwYTR-13" style="edgeStyle=orthogonalEdgeStyle;rounded=0;orthogonalLoop=1;jettySize=auto;html=1;fontSize=16;strokeWidth=2;endArrow=open;endFill=0;startArrow=diamondThin;startFill=0;endSize=14;startSize=24;jumpSize=6;sourcePerimeterSpacing=0;" edge="1" parent="1" source="5NR6WptyOh8fAquEwYTR-10" target="5NR6WptyOh8fAquEwYTR-6">
          <mxGeometry relative="1" as="geometry" />
        </mxCell>
        <mxCell id="5NR6WptyOh8fAquEwYTR-10" value="&lt;b&gt;Context&lt;/b&gt;" style="swimlane;fontStyle=0;align=center;verticalAlign=top;childLayout=stackLayout;horizontal=1;startSize=40;horizontalStack=0;resizeParent=1;resizeParentMax=0;resizeLast=0;collapsible=0;marginBottom=0;html=1;whiteSpace=wrap;fontSize=16;strokeWidth=2;" vertex="1" parent="1">
          <mxGeometry x="80" y="435" width="240" height="70" as="geometry" />
        </mxCell>
        <mxCell id="5NR6WptyOh8fAquEwYTR-11" value="+request()" style="text;html=1;strokeColor=none;fillColor=none;align=left;verticalAlign=middle;spacingLeft=4;spacingRight=4;overflow=hidden;rotatable=0;points=[[0,0.5],[1,0.5]];portConstraint=eastwest;whiteSpace=wrap;fontSize=16;strokeWidth=2;" vertex="1" parent="5NR6WptyOh8fAquEwYTR-10">
          <mxGeometry y="40" width="240" height="30" as="geometry" />
        </mxCell>
        <mxCell id="5NR6WptyOh8fAquEwYTR-14" style="edgeStyle=orthogonalEdgeStyle;rounded=0;orthogonalLoop=1;jettySize=auto;html=1;exitX=0.5;exitY=0;exitDx=0;exitDy=0;fontSize=16;strokeWidth=2;dashed=1;endArrow=block;endFill=0;endSize=20;entryX=0.5;entryY=1;entryDx=0;entryDy=0;" edge="1" parent="1" source="5NR6WptyOh8fAquEwYTR-8" target="5NR6WptyOh8fAquEwYTR-6">
          <mxGeometry relative="1" as="geometry">
            <mxPoint x="640" y="535" as="targetPoint" />
          </mxGeometry>
        </mxCell>
        <mxCell id="5NR6WptyOh8fAquEwYTR-16" value="&lt;span style=&quot;font-size: 16px; text-align: left; text-wrap-mode: wrap;&quot;&gt;+handle()&lt;/span&gt;" style="text;html=1;align=center;verticalAlign=middle;resizable=0;points=[];autosize=1;strokeColor=none;fillColor=none;" vertex="1" parent="1">
          <mxGeometry x="520" y="481" width="90" height="30" as="geometry" />
        </mxCell>
        <mxCell id="5NR6WptyOh8fAquEwYTR-17" value="" style="endArrow=none;startArrow=none;endFill=0;startFill=0;endSize=8;html=1;verticalAlign=bottom;labelBackgroundColor=none;strokeWidth=3;rounded=0;" edge="1" parent="1">
          <mxGeometry width="160" relative="1" as="geometry">
            <mxPoint x="520" y="475" as="sourcePoint" />
            <mxPoint x="760" y="475" as="targetPoint" />
          </mxGeometry>
        </mxCell>
        <mxCell id="5NR6WptyOh8fAquEwYTR-18" value="&lt;font style=&quot;font-size: 16px;&quot;&gt;-state&lt;/font&gt;" style="text;html=1;align=center;verticalAlign=middle;resizable=0;points=[];autosize=1;strokeColor=none;fillColor=none;" vertex="1" parent="1">
          <mxGeometry x="390" y="433" width="60" height="30" as="geometry" />
        </mxCell>
        <mxCell id="5NR6WptyOh8fAquEwYTR-19" value="&lt;h1 style=&quot;margin-top: 0px;&quot;&gt;&lt;br&gt;&lt;/h1&gt;&lt;h1 style=&quot;margin-top: 0px;&quot;&gt;The State Design Pattern&lt;/h1&gt;&lt;p&gt;&lt;font style=&quot;font-size: 16px;&quot;&gt;&lt;br&gt;&lt;/font&gt;&lt;/p&gt;&lt;p&gt;&lt;font style=&quot;font-size: 16px;&quot;&gt;* Context exposed to client&lt;/font&gt;&lt;/p&gt;&lt;p&gt;&lt;font style=&quot;font-size: 16px;&quot;&gt;&lt;span style=&quot;white-space: pre;&quot;&gt;&#x9;&lt;/span&gt;- Maintains a reference to the current state&lt;br&gt;&lt;/font&gt;&lt;/p&gt;&lt;p&gt;&lt;font style=&quot;font-size: 16px;&quot;&gt;&lt;span style=&quot;white-space: pre;&quot;&gt;&#x9;&lt;/span&gt;- Delegates state-specific behavior to State object&lt;br&gt;&lt;/font&gt;&lt;/p&gt;&lt;p&gt;&lt;font style=&quot;font-size: 16px;&quot;&gt;&lt;br&gt;&lt;/font&gt;&lt;/p&gt;&lt;p&gt;&lt;font style=&quot;font-size: 16px;&quot;&gt;* State interface&lt;/font&gt;&lt;/p&gt;&lt;p&gt;&lt;font style=&quot;font-size: 16px;&quot;&gt;&lt;span style=&quot;white-space: pre;&quot;&gt;&#x9;&lt;/span&gt;- Declares handle() method&lt;br&gt;&lt;/font&gt;&lt;/p&gt;&lt;p&gt;&lt;font style=&quot;font-size: 16px;&quot;&gt;&lt;span style=&quot;white-space: pre;&quot;&gt;&#x9;&lt;/span&gt;- Conforming types implement handle() to match specific behavior&lt;br&gt;&lt;/font&gt;&lt;/p&gt;&lt;p&gt;&lt;font style=&quot;font-size: 16px;&quot;&gt;&lt;span style=&quot;white-space: pre;&quot;&gt;&#x9;&lt;/span&gt;&lt;br&gt;&lt;/font&gt;&lt;/p&gt;" style="text;html=1;whiteSpace=wrap;overflow=hidden;rounded=0;" vertex="1" parent="1">
          <mxGeometry x="80" y="10" width="680" height="360" as="geometry" />
        </mxCell>
      </root>
    </mxGraphModel>
  </diagram>
</mxfile>
